# This file uses centimeters as units for non-parametric coordinates.

mtllib Column.mtl
g default
v -2.413495 -0.000004 2.649026
v 2.610799 -0.000004 2.649026
v -2.413495 25.947226 2.649026
v 2.610799 25.947226 2.649026
v -2.413495 25.947226 -2.649026
v 2.610799 25.947226 -2.649026
v -2.413495 -0.000004 -2.649026
v 2.610799 -0.000004 -2.649026
v 2.610799 0.699978 -1.949026
v 2.610799 0.699978 1.949026
v 2.610799 25.247225 -1.949026
v 2.610799 25.247225 1.949026
v 1.910799 17.883053 1.949026
v 1.910799 20.179960 0.000009
v 1.910799 17.883053 -1.949026
v 1.910799 15.586118 0.000009
v 1.910799 8.064145 1.949026
v 1.910799 10.370219 0.000009
v 1.910799 8.064145 -1.949026
v 1.910799 5.758070 0.000009
v 2.410799 14.667353 0.000009
v 2.410799 16.875530 -1.949026
v 2.410799 17.883053 -1.945353
v 2.410799 15.586118 0.000009
v 2.410798 17.883053 1.949026
v 2.410798 16.875530 1.949026
v 2.410799 4.835644 0.000009
v 2.410799 7.093618 -1.949026
v 2.410799 8.064145 -1.949026
v 2.410799 5.758070 0.000009
v 2.410798 8.064143 1.948192
v 2.410798 7.093618 1.949026
v 2.410799 21.098722 0.000009
v 2.410237 18.890591 -1.949026
v 2.414577 18.890591 1.949026
v 2.410799 20.179960 0.000009
v 2.410799 9.034666 -1.949026
v 2.410799 11.292651 0.000009
v 2.410798 9.034665 1.949026
v 2.410799 10.370219 0.000009
v 2.210798 25.247225 1.949026
v 2.210798 25.247225 -1.949026
v 2.210798 18.890591 1.949026
v 2.210798 21.098722 0.000009
v 2.210798 18.890591 -1.949026
v 2.210798 0.699978 -1.949026
v 2.210798 0.699978 1.949026
v 2.210798 7.093619 1.949026
v 2.210798 4.835644 0.000009
v 2.210798 7.093619 -1.949026
v 2.210798 9.034668 1.949026
v 2.210798 11.292654 0.000009
v 2.210798 16.875532 1.949026
v 2.210798 14.667355 0.000009
v 2.210798 16.875532 -1.949026
v 2.210798 9.034668 -1.949026
vt 0.659992 0.230542
vt 0.057051 0.024105
vt 0.408830 0.023815
vt 0.243069 0.024105
vt 0.033997 0.047239
vt 0.431965 0.046869
vt 0.058547 0.880157
vt 0.410325 0.879867
vt 0.433379 0.856733
vt 0.035412 0.857103
vt 0.224308 0.879867
vt 0.244564 0.880157
vt 0.826928 0.557368
vt 0.827046 0.648077
vt 0.806457 0.671292
vt 0.790620 0.563074
vt 0.825455 0.797451
vt 0.825662 0.889094
vt 0.806229 0.911712
vt 0.789187 0.803654
vt 0.701025 0.591660
vt 0.792835 0.578312
vt 0.027815 0.290209
vt 0.791060 0.671071
vt 0.027760 0.258190
vt 0.446576 0.856710
vt 0.700030 0.833535
vt 0.791624 0.818821
vt 0.660062 0.421698
vt 0.790868 0.911586
vt 0.438932 0.257797
vt 0.659601 0.064947
vt 0.445531 0.257785
vt 0.699249 0.684417
vt 0.701465 0.699656
vt 0.665137 0.705344
vt 0.020800 0.047262
vt 0.699274 0.926300
vt 0.773872 0.949370
vt 0.665447 0.947674
vt 0.439487 0.647003
vt 0.446210 0.646991
vt 0.439496 0.580522
vt 0.665103 0.614637
vt 0.439045 0.321836
vt 0.445643 0.321824
vt 0.446094 0.580510
vt 0.701710 0.941468
vt 0.684668 0.833427
vt 0.438988 0.289816
vt 0.665221 0.856030
vt 0.684152 0.969040
vt 0.659076 0.856046
vt 0.774783 0.955448
vt 0.439554 0.613762
vt 0.021162 0.258201
vt 0.027870 0.322229
vt 0.028313 0.580915
vt 0.021715 0.580926
vt 0.021272 0.322240
vt 0.028422 0.647396
vt 0.977807 0.028335
vt 0.977807 0.275709
vt 0.806751 0.776085
vt 0.021842 0.647408
vt 0.685629 0.591365
vt 0.683491 0.726972
vt 0.028388 0.614155
vt 0.916316 0.206043
vt 0.916316 0.099573
vt 0.854826 0.275709
vt 0.854826 0.028335
vt 0.917379 0.401277
vt 0.853531 0.537179
vt 0.853531 0.328941
vt 0.981227 0.537179
vt 0.981227 0.328941
vt 0.980694 0.835766
vt 0.917372 0.762407
vt 0.980694 0.628044
vt 0.854051 0.628044
vt 0.854051 0.835766
vt 0.658827 0.614647
vt 0.772740 0.709647
vt 0.773501 0.715742
vt 0.808569 0.535740
vt 0.833205 0.648069
vt 0.719335 0.553150
vt 0.718567 0.547038
vt 0.808231 0.578606
vt 0.809337 0.541852
vt 0.683854 0.684123
vt 0.682728 0.720860
vt 0.833088 0.557360
vt 0.658977 0.705354
vt 0.698809 0.576421
vt 0.793203 0.686320
vt 0.831807 0.889081
vt 0.717028 0.795736
vt 0.716118 0.789659
vt 0.806985 0.818946
vt 0.807661 0.782162
vt 0.683241 0.962964
vt 0.683913 0.926175
vt 0.831600 0.797438
vt 0.659302 0.947690
vt 0.697610 0.818366
vt 0.793304 0.926754
vt 0.834220 0.064535
vt 0.834611 0.230130
vt 0.682618 0.041821
vt 0.445162 0.046846
vt 0.834528 0.421212
vt 0.811541 0.444327
vt 0.683177 0.444685
vt 0.022215 0.857126
vt 0.811577 0.457500
vt 0.683214 0.457857
vt 0.811094 0.041519
vt 0.682587 0.028638
vt 0.465337 0.879394
vt 0.465337 0.023815
vt 0.640034 0.023815
vt 0.640034 0.879394
vt 0.659602 0.256247
vt 0.834067 0.255761
vt 0.222813 0.023815
vt 0.811063 0.028335
vn 0.000000 -1.000000 0.000000
vn 0.000000 -1.000000 0.000000
vn 0.000000 -1.000000 0.000000
vn 0.000000 -1.000000 0.000000
vn 1.000000 0.000000 0.000000
vn 1.000000 0.000000 0.000000
vn 1.000000 0.000000 0.000000
vn 1.000000 0.000000 0.000000
vn 1.000000 0.000000 0.000000
vn 1.000000 0.000000 0.000000
vn 1.000000 0.000000 0.000000
vn 1.000000 0.000000 0.000000
vn -1.000000 0.000000 0.000000
vn -1.000000 0.000000 0.000000
vn -1.000000 0.000000 0.000000
vn -1.000000 0.000000 0.000000
vn 1.000000 0.000000 0.000000
vn 1.000000 0.000000 0.000000
vn 1.000000 0.000000 0.000000
vn 1.000000 0.000000 0.000000
vn 1.000000 0.000000 0.000000
vn 1.000000 0.000000 0.000000
vn 1.000000 0.000000 0.000000
vn 1.000000 0.000000 0.000000
vn 1.000000 0.000000 0.000000
vn 1.000000 0.000000 0.000000
vn 1.000000 0.000000 0.000000
vn 1.000000 0.000000 0.000000
vn 1.000000 0.000000 0.000000
vn 1.000000 0.000000 0.000000
vn 1.000000 0.000000 0.000000
vn 1.000000 0.000000 0.000000
vn 0.999998 -0.000835 -0.001857
vn 0.999998 -0.000835 -0.001858
vn 0.999993 -0.001962 -0.003236
vn 0.999993 -0.001962 -0.003236
vn 1.000000 0.000000 0.000000
vn 1.000000 0.000000 0.000000
vn 1.000000 0.000000 0.000000
vn 1.000000 0.000000 0.000000
vn -0.002802 0.646643 0.762787
vn -0.002802 0.646643 0.762787
vn -0.002802 0.646643 0.762787
vn -0.002802 0.646643 0.762787
vn 0.000000 0.646997 -0.762492
vn 0.000000 0.646997 -0.762492
vn 0.000000 0.646997 -0.762492
vn 0.000000 0.646997 -0.762492
vn 0.000000 0.645506 0.763755
vn 0.000000 0.645506 0.763755
vn 0.000000 0.645506 0.763755
vn 0.000000 0.645506 0.763755
vn -0.000636 0.645422 -0.763826
vn -0.000636 0.645422 -0.763826
vn -0.000636 0.645422 -0.763826
vn -0.000636 0.645422 -0.763826
vn 0.000000 -0.647002 -0.762488
vn 0.000000 -0.647002 -0.762488
vn 0.000000 -0.647002 -0.762488
vn 0.000000 -0.647002 -0.762488
vn -0.002802 -0.646648 0.762783
vn -0.002802 -0.646648 0.762783
vn -0.002802 -0.646648 0.762783
vn -0.002802 -0.646648 0.762783
vn -0.000638 -0.645422 -0.763826
vn -0.000638 -0.645422 -0.763826
vn -0.000638 -0.645422 -0.763826
vn -0.000638 -0.645422 -0.763826
vn 0.000000 -0.645506 0.763755
vn 0.000000 -0.645506 0.763755
vn 0.000000 -0.645506 0.763755
vn 0.000000 -0.645506 0.763755
vn 1.000000 0.000000 0.000000
vn 1.000000 0.000000 0.000000
vn 1.000000 0.000000 0.000000
vn 1.000000 0.000000 0.000000
vn 1.000000 0.000000 0.000000
vn 1.000000 0.000000 0.000000
vn 1.000000 0.000000 0.000000
vn 1.000000 0.000000 0.000000
vn 1.000000 0.000000 0.000000
vn 1.000000 0.000000 0.000000
vn 0.000000 0.661749 0.749726
vn 0.000000 0.661749 0.749726
vn 0.000000 0.661749 0.749726
vn 0.000000 0.661749 0.749726
vn 0.000000 0.661753 -0.749722
vn 0.000000 0.661753 -0.749722
vn 0.000000 0.661753 -0.749722
vn 0.000000 0.661753 -0.749722
vn 0.000137 -0.000003 1.000000
vn 0.004473 -0.000107 0.999990
vn 0.000000 0.000000 1.000000
vn 0.000000 -1.000000 0.000000
vn 0.000000 -1.000000 0.000000
vn 0.000000 -1.000000 0.000000
vn 0.000000 -1.000000 0.000000
vn 0.000000 1.000000 0.000000
vn 0.000000 1.000000 0.000000
vn 0.000000 1.000000 0.000000
vn 0.000000 1.000000 0.000000
vn 0.000009 0.653416 0.756999
vn 0.000009 0.653416 0.756999
vn 0.000009 0.653416 0.756999
vn 0.000009 0.653416 0.756999
vn 0.000008 0.653420 -0.756996
vn 0.000008 0.653420 -0.756996
vn 0.000008 0.653420 -0.756996
vn 0.000008 0.653420 -0.756996
vn -0.000002 -0.653421 -0.756994
vn -0.000002 -0.653421 -0.756994
vn -0.000002 -0.653421 -0.756994
vn -0.000002 -0.653421 -0.756994
vn -0.000002 -0.653418 0.756998
vn -0.000002 -0.653418 0.756998
vn -0.000002 -0.653418 0.756998
vn -0.000002 -0.653418 0.756998
vn -0.002457 -0.000077 -0.999997
vn 0.000028 0.000001 -1.000000
vn 0.000000 0.000000 -1.000000
vn 0.000000 0.000000 -1.000000
vn 0.000000 1.000000 0.000000
vn 0.000000 1.000000 0.000000
vn 0.000000 1.000000 0.000000
vn 0.000000 1.000000 0.000000
vn -0.000006 -0.661745 -0.749729
vn -0.000006 -0.661745 -0.749729
vn -0.000006 -0.661745 -0.749729
vn -0.000006 -0.661745 -0.749729
vn -0.000007 -0.661741 0.749733
vn -0.000007 -0.661741 0.749733
vn -0.000007 -0.661741 0.749733
vn -0.000007 -0.661741 0.749733
vn 0.000000 0.000000 1.000000
vn 0.000000 0.000000 1.000000
vn 0.000000 0.000000 1.000000
vn 0.000000 0.000000 1.000000
vn 0.000000 0.000000 -1.000000
vn 0.000000 0.000000 -1.000000
vn 0.000000 0.000000 -1.000000
vn 0.000000 0.000000 -1.000000
vn 0.000000 0.000000 -1.000000
vn 0.000031 0.000001 -1.000000
vn 0.000001 0.000000 -1.000000
vn 0.000000 0.000000 -1.000000
vn 0.000823 0.000020 -1.000000
vn 0.000823 0.000020 -1.000000
vn 0.000001 0.000000 -1.000000
vn 0.000001 0.000000 -1.000000
vn 0.001004 0.000024 -1.000000
vn 0.001011 0.000024 -1.000000
vn 1.000000 0.000291 -0.000481
vn 1.000000 0.000291 -0.000481
vn 1.000000 0.000000 0.000000
vn 1.000000 0.000000 0.000000
vn 1.000000 0.000000 0.000000
vn 1.000000 0.000000 0.000000
vn 1.000000 0.000000 0.000000
vn 1.000000 0.000000 0.000000
vn 0.000000 0.000000 1.000000
vn 0.000000 0.000000 1.000000
vn 0.003643 -0.000087 0.999993
vn 0.003642 -0.000087 0.999993
vn -0.000001 0.000000 1.000000
vn -0.000001 0.000000 1.000000
vn -0.010763 0.000340 0.999942
vn 0.000121 -0.000003 1.000000
vn 0.000000 0.000000 1.000000
vn 0.000000 0.000000 1.000000
vn 0.004443 -0.000106 0.999990
vn 1.000000 0.000000 0.000000
vn 1.000000 0.000000 0.000000
vn 1.000000 0.000000 0.000000
vn 1.000000 0.000000 0.000000
vn 1.000000 0.000000 0.000000
vn 1.000000 0.000000 0.000000
s off
g Column
usemtl initialShadingGroup
f 7/1/1 8/32/2 2/109/3 1/110/4
s 1
f 2/109/5 8/32/6 9/111/7 10/119/8
f 6/29/9 4/113/10 12/114/11 11/115/12
f 9/5/7 8/2/6 6/7/9 11/10/12
s off
f 5/121/13 7/122/14 1/123/15 3/124/16
s 1
f 4/8/10 2/3/5 10/6/8 12/9/11
s 2
f 21/13/17 22/14/18 23/15/19 24/90/20
s off
f 13/21/21 16/22/22 15/24/23 14/34/24
s 3
f 27/17/25 28/18/26 29/19/27 30/101/28
s off
f 17/27/29 20/28/30 19/30/31 18/38/32
s 4
f 36/92/33 33/36/34 35/44/35 25/66/36
s 5
f 29/108/37 37/39/38 38/103/39 40/48/40
s off
f 15/24/41 16/22/42 24/90/43 23/15/44
f 16/22/45 13/21/46 25/96/47 24/16/48
f 19/30/49 20/28/50 30/101/51 29/19/52
f 20/28/53 17/27/54 31/107/55 30/20/56
f 13/21/57 14/34/58 36/92/59 25/66/60
f 14/34/61 15/24/62 23/97/63 36/35/64
f 17/27/65 18/38/66 40/104/67 31/49/68
f 18/38/69 19/30/70 29/108/71 40/48/72
s 6
f 44/73/73 41/74/74 43/75/75
s 7
f 50/78/76 49/79/77 46/80/78
s 8
f 56/62/79 55/63/80 54/69/81 52/70/82
s off
f 35/44/83 33/36/84 44/95/85 43/83/86
f 33/93/87 34/84/88 45/85/89 44/67/90
s 9
f 9/5/91 29/23/92 28/25/93
s off
f 11/115/94 12/114/95 41/117/96 42/118/97
f 5/125/98 3/126/99 4/113/100 6/29/101
f 39/51/102 38/40/103 52/106/104 51/53/105
f 38/103/106 37/39/107 56/54/108 52/52/109
f 28/18/110 27/17/111 49/105/112 50/98/113
f 27/102/114 32/99/115 48/100/116 49/64/117
s 10
f 32/31/118 10/6/119 47/112/120 48/33/121
s off
f 10/119/122 9/111/123 46/120/124 47/128/125
f 22/14/126 21/13/127 54/94/128 55/87/129
f 21/91/130 26/88/131 53/89/132 54/86/133
f 4/8/134 3/12/135 1/4/136 2/3/137
f 6/7/138 8/2/139 7/127/140 5/11/141
s 10
f 41/26/142 12/9/143 35/41/144 43/42/145
f 26/43/146 39/45/147 51/46/148 53/47/149
f 31/50/150 10/6/119 32/31/118
f 12/9/143 25/55/151 35/41/144
f 10/6/119 31/50/150 39/45/147 26/43/146 25/55/151 12/9/143
s 4
f 34/84/152 33/93/34 36/35/33 23/97/153
s 2
f 21/91/17 24/16/20 25/96/154 26/88/155
s 5
f 40/104/40 38/40/39 39/51/156 31/49/157
s 3
f 27/102/25 30/20/28 31/107/158 32/99/159
s 9
f 9/5/91 28/25/93 50/56/160 46/37/161
f 37/57/162 22/58/163 55/59/164 56/60/165
f 34/61/166 11/10/167 42/116/168 45/65/169
f 11/10/167 23/68/170 22/58/163 37/57/162 29/23/92 9/5/91
f 23/68/170 11/10/167 34/61/166
s 6
f 44/73/73 42/76/171 41/74/74
f 45/77/172 42/76/171 44/73/73
s 8
f 52/70/82 54/69/81 53/71/173 51/72/174
s 7
f 47/81/175 49/79/77 48/82/176
f 46/80/78 49/79/77 47/81/175
